<mxfile host="app.diagrams.net" modified="2023-10-18T09:51:47.228Z" agent="Mozilla/5.0 (X11; Linux x86_64; rv:109.0) Gecko/20100101 Firefox/114.0" version="21.6.6" etag="GZCOhRltMEby-2dlDOqb" type="github">
  <diagram name="第 1 页" id="aqbBJ1UPIsCGT51pzWLn">
    <mxGraphModel>
      <root>
        <mxCell id="0" />
        <mxCell id="1" parent="0" />
      </root>
    </mxGraphModel>
  </diagram>
</mxfile>
